<?xml version="1.0" encoding="utf-8"?>
<!-- Generator: Adobe Illustrator 18.1.1, SVG Export Plug-In . SVG Version: 6.00 Build 0)  -->
<svg version="1.1" id="Capa_1" xmlns="http://www.w3.org/2000/svg" xmlns:xlink="http://www.w3.org/1999/xlink" x="0px" y="0px"
	 viewBox="0 0 512 512" enable-background="new 0 0 512 512" xml:space="preserve">
<g>
	<path fill="#FFFFFF" d="M380.5,215.7h-67.6v-54.8c0-14.2-11.7-25.9-25.9-25.9H129.2c-14.2,0-25.9,11.7-25.9,25.9v94.9
		c0,14.2,11.7,25.9,25.9,25.9h15.3l19.3,25.9c1.1,1.8,3.3,2.6,5.5,2.6s4-1.1,5.5-2.6l19.3-25.9h2.9v54.8c0,14.2,11.7,25.9,25.9,25.9
		h92.7l19.3,25.9c1.1,1.8,3.3,2.6,5.5,2.6c2.2,0,4-1.1,5.5-2.6l19.3-25.9h15.3c14.2,0,25.9-11.7,25.9-25.9v-94.9
		C406.7,227.4,395.1,215.7,380.5,215.7z M190.6,268.3c-2.2,0-4,1.1-5.5,2.6L169.1,292L153,270.8c-1.1-1.8-3.3-2.6-5.5-2.6h-19
		c-6.9,0-12.4-5.5-12.4-12.4v-94.9c0-6.9,5.5-12.4,12.4-12.4h157.8c6.9,0,12.4,5.5,12.4,12.4v61.7v33.2c0,6.9-5.5,12.4-12.4,12.4
		h-82.6L190.6,268.3L190.6,268.3z M393.2,336.6c0,6.9-5.5,12.4-12.4,12.4h-19c-2.2,0-4,1.1-5.5,2.6l-16.1,21.2l-16.1-21.2
		c-1.1-1.8-3.3-2.6-5.5-2.6h-95.7c-6.9,0-12.4-5.5-12.4-12.4v-54.8H287c5.1,0,9.9-1.5,13.9-4H352c3.7,0,6.6-2.9,6.6-6.6
		c0-3.7-2.9-6.6-6.6-6.6h-40.2c1.1-2.6,1.5-5.5,1.5-8.8v-26.3h67.6c6.9,0,12.4,5.5,12.4,12.4L393.2,336.6L393.2,336.6z M358.2,308.8
		c0,3.7-2.9,6.6-6.6,6.6h-99.3c-3.7,0-6.6-2.9-6.6-6.6s2.9-6.6,6.6-6.6h99.3C355.2,302.2,358.2,305.2,358.2,308.8z M257,234.7h-99
		c-3.7,0-6.6-2.9-6.6-6.6s2.9-6.6,6.6-6.6h99c3.7,0,6.6,2.9,6.6,6.6C264,231.8,260.7,234.7,257,234.7z M151.5,190.1
		c0-3.7,2.9-6.6,6.6-6.6h59.5c3.7,0,6.6,2.9,6.6,6.6c0,3.7-2.9,6.6-6.6,6.6h-59.5C154.4,196.7,151.5,193.8,151.5,190.1z"/>
</g>
</svg>
