<?xml version="1.0" encoding="utf-8"?>
<!-- Generator: Adobe Illustrator 18.1.1, SVG Export Plug-In . SVG Version: 6.00 Build 0)  -->
<svg version="1.1" id="Layer_1" xmlns="http://www.w3.org/2000/svg" xmlns:xlink="http://www.w3.org/1999/xlink" x="0px" y="0px"
	 viewBox="0 131 1020 252" enable-background="new 0 131 1020 252" xml:space="preserve">
<path fill="#FFFFFF" d="M132.2,156.4v84.3c0,5.4,4.3,9.7,9.7,9.7h85.4c5.4,0,9.7-4.4,9.7-9.7c0-5.4-4.4-9.7-9.7-9.7h-75.6v-74.6
	c0-5.4-4.3-9.7-9.7-9.7S132.2,151,132.2,156.4"/>
<path fill="#FFFFFF" d="M28.4,260.8c-5.4,0-9.7,4.4-9.7,9.7c0,5.4,4.4,9.7,9.7,9.7H104v74.5c0,5.4,4.4,9.7,9.7,9.7
	c5.4,0,9.7-4.4,9.7-9.7v-84.3c0-5.4-4.4-9.7-9.7-9.7H28.4z"/>
<text transform="matrix(1 0 0 1 350.002 331.1211)" fill="#FFFFFF" font-family="'Verdana-Bold'" font-size="194.0954" letter-spacing="7">iKath</text>
</svg>
