<?xml version="1.0" encoding="utf-8"?>
<!-- Generator: Adobe Illustrator 18.1.1, SVG Export Plug-In . SVG Version: 6.00 Build 0)  -->
<svg version="1.1" id="Laag_1" xmlns="http://www.w3.org/2000/svg" xmlns:xlink="http://www.w3.org/1999/xlink" x="0px" y="0px"
	 viewBox="0 0 512 512" enable-background="new 0 0 512 512" xml:space="preserve">
<rect x="-61.3" y="362.8" fill="none" width="634.7" height="76.2"/>
<g>
	<path fill="#869EBF" d="M66.5,370v49.3h-9.5V370H66.5z"/>
	<path fill="#869EBF" d="M90.8,370l29.2,34.5V370h9.3v49.3H121l-29.4-34.9v34.9h-9.1V370H90.8z"/>
	<path fill="#869EBF" d="M186.2,370v7.4h-17.6v41.9h-9.5v-41.9h-17.3V370H186.2z"/>
	<path fill="#869EBF" d="M216.2,370c4.7,0,8.5,1.3,11.4,3.8c3,2.5,4.4,5.9,4.4,9.9c0,2.8-0.6,5.3-2.1,7.4c-1.5,2.1-3.6,3.8-6.3,4.9
		c1.5,0.8,3,1.9,4.2,3.4c1.3,1.5,2.8,4,4.7,7.4c3,5.9,5.3,10.2,6.8,12.3h-10.6c-0.6-1.1-1.7-2.8-3-5.3c-2.8-5.3-4.7-8.7-5.9-10.6
		s-2.5-3.2-3.6-3.8c-1.3-0.8-2.5-1.1-4-1.1h-3.4v20.7h-9.5v-49.3h16.9V370z M214.1,391c2.5,0,4.4-0.6,5.9-1.9c1.5-1.3,2.1-3,2.1-5.1
		c0-2.3-0.6-4-2.1-5.1c-1.5-1.1-3.4-1.7-6.1-1.7H208V391L214.1,391L214.1,391z"/>
	<path fill="#869EBF" d="M275.1,370l21.8,49.3h-10.2l-5.1-12.1h-21.8l-4.9,12.1H245l20.3-49.3H275.1z M262.6,400.1h15.9l-8.3-19.5
		L262.6,400.1z"/>
	<path fill="#869EBF" d="M315.9,370l29.2,34.5V370h9.3v49.3h-8.3l-29.4-34.9v34.9h-9.3V370H315.9z"/>
	<path fill="#869EBF" d="M402.2,370v7.4H380v12.9h21.4v7.4H380v14h22.9v7.4h-32.4v-49.3h31.7V370z"/>
	<path fill="#869EBF" d="M457.7,370v7.4h-17.6v41.9h-9.5v-41.9H413V370H457.7z"/>
</g>
<g>
	<g>
		<path fill="#869EBF" d="M255.5,195.8c1.3,3.4,5.1,5,8.5,3.7c16.6-6.6,61.9-24.4,62.8-24.8c19.1-7.6,28.4-29.2,20.8-48.3
			c-7.6-19-29.1-28.4-48.1-20.9c-7.6-19-29.2-28.3-48.2-20.7c-19.1,7.6-28.4,29.2-20.8,48.3C230.8,134.1,248.8,179.2,255.5,195.8z"
			/>
		<path fill="#869EBF" d="M256.6,216.6c-1.3-3.4-5.1-5-8.5-3.7c-16.6,6.6-61.9,24.4-62.8,24.8c-19.1,7.6-28.4,29.2-20.8,48.3
			c7.6,19,29.1,28.4,48.1,20.9c7.6,19,29.2,28.3,48.2,20.7c19.1-7.6,28.4-29.2,20.8-48.3C281.3,278.3,263.2,233.2,256.6,216.6z"/>
		<path fill="#869EBF" d="M377.3,201.4c-7.6-19.1-29.2-28.4-48.3-20.8c-0.9,0.4-46.1,18.4-62.7,25.1c-3.4,1.3-5,5.1-3.7,8.5
			c6.6,16.6,24.4,61.9,24.8,62.8c7.6,19.1,29.2,28.4,48.3,20.8c19-7.6,28.4-29.1,20.9-48.1C375.6,242,384.9,220.4,377.3,201.4z"/>
		<path fill="#869EBF" d="M245.7,206.7c3.4-1.3,5-5.1,3.7-8.5c-6.6-16.6-24.4-61.9-24.8-62.8c-7.6-19.1-29.2-28.4-48.3-20.8
			c-19,7.6-28.4,29.1-20.9,48.1c-19,7.6-28.2,29.2-20.7,48.2c7.6,19.1,29.2,28.4,48.3,20.8C183.9,231.4,229,213.4,245.7,206.7z"/>
	</g>
</g>
</svg>
