<?xml version="1.0" encoding="utf-8"?>
<!-- Generator: Adobe Illustrator 18.1.1, SVG Export Plug-In . SVG Version: 6.00 Build 0)  -->
<!DOCTYPE svg PUBLIC "-//W3C//DTD SVG 1.1//EN" "http://www.w3.org/Graphics/SVG/1.1/DTD/svg11.dtd">
<svg version="1.1" id="Layer_1" xmlns="http://www.w3.org/2000/svg" xmlns:xlink="http://www.w3.org/1999/xlink" x="0px" y="0px"
	 width="512px" height="252px" viewBox="0 130 512 252" enable-background="new 0 130 512 252" xml:space="preserve">
<path fill="#fff" d="M353.6,224.5c-0.2,11.7-1.8,26.5-4.9,44.4c4.3,1.7,8.9,2,13.9,0.9c5.6-20.3,14.3-30.7,26.1-31.1l32.9-0.3
	l0.5,0.6c-25.5,42.1-51.5,81.1-77.9,117c-1.9,2.6-2.8,4.8-2.8,6.5c0,2.6,2.5,3.9,7.4,3.9l113.5,0.9c4.4-13.1,7.8-27.8,10.2-44.2
	c-2.4-1.1-6.7-1.6-12.9-1.6l-4.4,9.4c-4.3,8.7-8.6,14.7-12.9,17.9c-4.3,3.2-10.5,4.8-18.7,4.8h-31l-0.2-0.7
	c10.5-13.9,22.4-31.4,35.8-52.5c13.4-21.1,26.6-41.5,39.6-61c3.8-6.4,5.7-10.3,5.7-11.8c0.1-1.5-1.2-2.3-3.9-2.3
	c-0.2,0-2.5,0.1-6.8,0.2c-4.3,0.1-9,0.2-14.2,0.3c-5.1,0.1-9.1,0.2-12,0.2h-62.2c-3,0-5.7-0.2-7.9-0.5c-2.3-0.3-4.4-0.8-6.5-1.4
	c-2-0.6-3.6-1-4.6-1.3C354.2,222.6,353.6,223.2,353.6,224.5 M218.2,290c1.3-0.1,2.8-0.2,4.6-0.2c2.2,0,4.3,1.7,6.3,5.2
	c2,3.6,4.3,10.2,6.9,19.8c2.6,9.7,5,16.8,7.1,21.6c5.5,12,10.5,20.5,15.2,25.5c4.7,5,10.2,7.6,16.6,7.6c8.8,0,17.2-2.3,25.3-6.9
	c8-4.6,14.3-11.7,18.8-21.1c-3.2-3.7-6.4-5.5-9.6-5.5c-6.3,9.1-11.9,13.7-16.7,13.7c-2.8,0-5-1-6.4-2.9c-1.4-1.9-2.8-5.1-4-9.4
	c-5.8-18.2-10.2-30.2-13.2-36.2c-5.8-11.3-12.9-18.2-21.3-20.6l-0.3-1.3l16.7-14.8c8.6-7.7,16.8-11.5,24.6-11.5c2.7,0,5.4,1.6,8,4.9
	c4.8,5.7,9.2,8.5,13.2,8.5c5,0,9.2-2.3,12.5-6.9c3.3-4.6,5-9.8,5-15.6c0-4.8-1.9-9.2-5.6-13.1c-3.7-3.9-8.9-5.9-15.5-5.9
	c-5.4,0-13.3,3-23.9,9.1c-10.5,6-21.4,14-32.5,23.9l-12.9,10.9c-6.5,5.6-12,8.9-16.4,9.7l21.9-100.1c3.3-15.2,4.9-23.9,4.9-26.3
	c-0.1-7.1-3.3-10.7-9.7-10.7c-2.9,0-7.5,0.5-13.9,1.5c-6.3,1-13.8,2.3-22.5,3.9c-8.6,1.6-14.2,2.7-16.6,3.1c-2.1,4.3-2.6,7.9-1.6,11
	c10.5,0,17,1.4,19.7,4.1c2.6,2.7,2.7,9.4,0.3,20l-35.9,158.4c-0.4,1.8-0.9,4.1-1.6,6.9c-0.6,2.8-1.1,5-1.5,6.7
	c-0.4,1.7-0.6,3.1-0.6,4c0,2.9,1.4,5.1,4.3,6.5c2.8,1.4,8.4,2.1,16.7,2.1c3.1,0,5.8-0.4,8.2-1.3c2.4-0.8,4.2-1.7,5.5-2.5
	c1.3-0.9,2.5-2.5,3.6-4.9c1.1-2.4,1.7-4.2,2-5.2c0.2-1,0.7-3.2,1.4-6.5c0.7-3.3,1.1-5.3,1.3-6L218.2,290z M105.8,267.1
	c1.3-3.2,3.2-6,5.7-8.4c3.8-3.7,7.2-5.5,10.2-5.5c0.6,0,1.2,0.1,1.7,0.3c0.5,0.2,1.1,0.6,1.7,1c0.6,0.5,1.2,0.9,1.6,1.3
	c0.4,0.4,1,1,1.7,1.7c0.7,0.7,1.3,1.3,1.7,1.7c3.6,3.6,8.8,5.4,15.6,5.4c4.8,0,9.1-2.3,12.9-6.8c3.8-4.5,5.7-10.1,5.7-16.7
	c0-4.3-2.2-8.4-6.5-12.2c-4.3-3.8-9.2-5.7-14.8-5.7c-11.2-0.1-24,10.2-38.4,30.9h-1.3c-0.4-6.4-1.2-14.9-2.2-25.4
	c-0.5-3.7-3-5.5-7.6-5.5c-23.2,5.8-41,9.3-53.5,10.6c-0.7,2.8-0.5,6.2,0.8,10.1c8.8,0.8,14.5,2.6,17.1,5.3c2.6,2.7,3.9,8.5,3.9,17.6
	V327c0,12.9-1.3,20.8-3.9,23.5c-2.6,2.8-9.1,4.6-19.4,5.4c-0.8,0.9-1.3,2.8-1.3,5.6s0.4,4.6,1.3,5.4c18.1-0.4,32.8-0.6,44.2-0.6
	c10.9,0,25.6,0.2,44.1,0.6c0.9-0.8,1.4-2.7,1.3-5.5c-0.1-2.8-0.5-4.7-1.3-5.5c-10.3-0.6-16.7-2.4-19.3-5.3
	c-2.6-2.9-3.9-10.8-3.9-23.7v-47.1C103.8,274.6,104.5,270.3,105.8,267.1"/>
</svg>
